17 new Reggeaton Videos HD. Nengo Flo, JAlvarez, Zion, And More

Format : AVI
Format/Info : Audio Video Interleave
File size : 1.62 GiB
Duration : 1h 9mn
Overall bit rate : 3 339 Kbps
Writing library : VirtualDub build 32842/release

Video
ID : 0
Format : MPEG-4 Visual
Format profile : Advanced Simple@L5
Format settings, BVOP : 2
Format settings, QPel : No
Format settings, GMC : No warppoints
Format settings, Matrix : Default (H.263)
Muxing mode : Packed bitstream
Codec ID : XVID
Codec ID/Hint : XviD
Duration : 1h 9mn
Bit rate : 1 916 Kbps
Width : 1 280 pixels
Height : 720 pixels
Display aspect ratio : 16:9
Frame rate : 29.970 fps
Color space : YUV
Chroma subsampling : 4:2:0
Bit depth : 8 bits
Scan type : Progressive
Compression mode : Lossy
Bits/(Pixel*Frame) : 0.069
Stream size : 952 MiB (57%)
Writing library : XviD 64

Audio
ID : 1
Format : PCM
Format settings, Endianness : Little
Format settings, Sign : Signed
Codec ID : 1
Duration : 1h 9mn
Bit rate mode : Constant
Bit rate : 1 411.2 Kbps
Channel(s) : 2 channels
Sampling rate : 44.1 KHz
Bit depth : 16 bits
Stream size : 701 MiB (42%)
Interleave, duration : 33 ms (1.00 video frame)
Interleave, preload duration : 500 ms
